Patient4_TMGait_0pt2_03_left_22_EMG.mot
version=1
nRows=26
nColumns=33
inDegrees=no
endheader
time	1LAddLong	2LGlutMax	3LGlutMed	4LIliopsoas	5LSemiMemb	6LBicFemLong	7LRecFem	8LVastMed	9LVastLat	10LGasMed	11LTibAnt	12lTibPost	13LPeroneusLong	14LSol	15LExtDigLong	16LFlexDigLong	17RAddLong	18RGlutMax	19RGlutMed	20RIliopsoas	21RSemiMemb	22RBicFemLong	23RRecFem	24RVastMed	25RVastLat	26RGasMed	27RTibAnt	28RTibPost	29RPeroneusLong	30RSol	31RExtDigLong	32RFlexDigLong
45.99	0.014191	-0.36819	-0.090637	0.11795	0.011902	0.018768	-0.031128	0.017548	-0.028687	0.022125	-0.028229	0.034943	0.022736	-0.06134	0.010071	-0.005493	0.017853	-0.096283	1.0381	-0.22705	-0.0177	0.11261	0.27817	0.12238	0.015259	-0.013885	0.10422	0.049744	-0.98877	0.86807	-0.004578	-0.014343
45.991	0.00885	-0.33463	-0.062714	0.090179	0.010834	-0.002441	-0.022888	0.011444	-0.028687	0.001526	0.065918	0.032349	0.040894	-0.039063	0.50217	0.002899	0.059357	-0.086212	0.4744	-0.19455	-0.037994	0.062561	0.25375	-0.041656	0.28854	-0.001221	0.13153	0.1535	-1.6154	1.236	-0.000763	-0.004272
45.992	0.007477	-0.28763	-0.007172	0.033417	0.014191	-0.00824	-0.029449	0.021667	-0.026855	-0.011444	0.097504	0.032501	0.043335	0.007629	0.14542	-0.010681	0.041656	0.00061	-0.098267	-0.14832	-0.071869	0.040588	0.21347	-0.039063	0.46509	0.01236	0.069122	0.059814	-0.95123	0.95734	-0.002441	-0.003204
45.993	-0.003967	-0.22995	0.15625	0.002594	0.005951	0.000458	-0.016022	0.011292	-0.032959	-0.010223	0.035553	0.032349	0.013123	0.00412	0.011139	0.000305	0.027466	0.005798	-0.1088	0.05249	-0.047302	0.057678	-0.046844	0.53818	0.44601	-0.010681	-0.098877	0.025787	1.8364	0.3801	-0.005646	-0.004272
45.994	-0.001831	-0.22186	0.10193	-0.007935	0.008545	0.005035	-0.025482	0.008698	-0.039063	-0.012512	-0.019073	0.035706	0.014038	0.039825	0.002594	-0.006104	0.075684	0.087738	0.2327	0.044098	-0.04364	0.026703	-0.037689	0.23666	0.24796	-0.006561	-0.088806	-0.11002	1.8408	0.005341	-0.002136	-0.008698
45.995	-0.002747	-0.17792	0.076752	-0.009613	0.002747	0.001068	-0.005798	0.0177	-0.046692	0.014954	-0.037231	0.038452	-0.016479	0.04715	-0.084686	-0.017242	0.092163	0.067291	-0.34164	0.11444	-0.018311	0.044556	0.032196	-0.12665	-0.043335	-0.00473	0.058441	-0.05722	0.17349	-0.095978	-0.002747	-0.015411
45.996	-0.008698	-0.12573	0.059204	0.011597	-0.008698	0.03479	0.001831	-0.006409	-0.053711	0.021515	0.002899	0.031128	-0.00061	0.080109	-0.10086	-0.002136	0.0737	0.031738	-0.35767	0.23178	0.010681	0.03479	0.16083	-0.2742	-0.32074	0.000458	0.11459	0.14023	-0.80307	0.057526	-0.00061	-0.012817
45.997	-0.009003	-0.078735	0.065308	0.011597	-0.010223	0.050659	0.010223	0.005188	-0.05661	0.015869	0.012817	0.024109	0.037384	0.072784	-0.039825	-0.016632	0.042877	0.001984	0.3627	0.14008	-0.001221	0.059357	0.25787	-0.16525	-0.50095	0.010223	-0.073395	0.051117	-0.7254	0	-0.004425	-0.013885
45.998	-0.006104	-0.054779	0.058441	0.001678	-0.005951	0.036163	-0.002594	0.011139	-0.047302	0.012054	0.007019	0.02121	0.021057	0.038147	0.051422	-0.004883	-0.031433	-0.064697	0.1976	0.04776	-0.056915	0.11108	0.23651	-0.53497	-0.72159	0.010986	-0.02243	-0.000458	-0.42297	-0.077515	-0.001526	-0.012817
45.999	-0.013123	-0.026093	0.042725	-0.021362	-0.006256	0.050354	-0.002441	-0.00473	-0.038452	0.013275	0.032349	0.021667	0.018311	0.00061	0.41916	-0.006714	-0.019379	-0.019836	0.88257	0.010529	-0.068359	0.067139	0.23224	-0.45227	-0.68573	0.012207	-0.084381	-0.024872	-0.033112	0.038147	-0.003357	-0.011444
46	0.000153	-0.081024	0.0177	-0.023956	-0.007782	0.023804	-0.017242	-0.003662	-0.040894	0.024109	0.10468	0.019379	-0.006561	-0.008698	0.22919	-0.015564	0.009766	-0.06424	0.92911	-0.007172	-0.047455	0.053101	0.062103	-0.63416	-0.093994	-0.001831	-0.15411	-0.034943	0.43213	0.12726	-0.001831	-0.00885
46.001	-0.008545	-0.052948	0.015411	0.008698	-0.005646	0.010681	0.001373	-0.006714	-0.033569	0.015259	0.10834	0.012054	0.014801	-0.005188	0.094757	-0.004272	0.028992	-0.062408	0.47348	-0.068207	0.12222	0.007935	0.10513	-0.91812	0.48981	-0.001068	-0.094299	-0.04425	0.44846	0.032501	-0.001526	-0.013123
46.002	-0.003357	-0.027771	0.027313	0.011444	-0.014343	0.016479	-0.027466	-0.015564	-0.028534	0.00473	0.026398	0.012512	0.062408	0.019073	-0.12192	0.001068	0.066681	-0.12695	-0.33554	-0.23117	0.1474	-0.073242	0.1506	-0.80231	0.53833	0.000305	-0.048065	-0.035095	0.088806	-0.046844	0.000916	-0.013885
46.003	-0.00061	0.015717	0.062714	0.018005	-0.005035	0.010986	-0.02121	-0.010834	-0.019989	-0.00412	-0.056458	0.012665	0.094604	0.034027	-0.051575	-0.001984	0.075226	-0.10468	0.10223	-0.31876	0.057068	-0.067749	-0.010376	-0.51773	0.9848	0.004883	-0.021057	-0.034485	-0.32883	-0.1416	-0.003357	-0.011292
46.004	-0.003967	0.07843	0.004425	0.026093	-0.007019	0.007477	-0.026093	-0.020142	-0.015106	0.014648	-0.06958	0.015106	0.043182	0.022583	0.092773	-0.01236	0.10712	-0.039673	0.22614	-0.17563	-0.076904	-0.046997	-0.041199	-0.19882	1.0637	0.006866	0.020752	-0.037079	-0.63339	-0.11246	-0.002747	-0.016785
46.005	0.000458	0.088654	-0.038452	0.052795	-0.005493	-0.020142	-0.015564	-0.013428	-0.013733	0.027924	0.028076	0.016174	-0.025787	0.06546	0.066833	-0.005951	0.096283	-0.023193	-0.24658	0.15121	-0.24139	-0.033417	-0.11917	0.44723	0.99426	-0.010681	0.007935	-0.036469	-0.1944	0.072174	-0.002136	-0.014343
46.006	-0.005188	0.15747	-0.018005	0.058594	0.000458	-0.010834	-0.015411	-0.012665	-0.013123	0.019531	0.068207	0.014648	-0.04776	0.048981	0.050049	-0.007477	0.064697	-0.022583	-0.26642	0.30655	-0.29159	-0.059967	-0.1384	0.93811	0.57571	-0.016327	-0.04364	-0.032196	0.073853	0.097961	-0.003662	-0.011597
46.007	-0.010071	0.2066	0.010376	0.024872	-0.006256	-0.030365	-0.010071	-0.016479	-0.020142	0.025024	0.077667	0.014343	-0.048828	0.077057	0.076904	-0.000458	0.002899	0.027466	-0.61966	0.1178	-0.39002	-0.001526	-0.14664	1.3969	-0.41962	-0.008698	-0.037842	-0.027161	-0.033875	0.044098	-0.001373	-0.004883
46.008	0.005035	0.22049	0.00824	0.025635	-0.007782	-0.011902	-0.001678	-0.003052	-0.028381	0.00885	0.063019	0.005646	-0.022583	0.059204	-0.16388	-0.004883	-0.021667	-0.02182	-0.84824	0.062103	-0.37247	-0.033417	0.17212	1.2558	-0.90256	-0.003662	-0.031128	-0.024414	-0.22018	0.016327	-0.001068	-0.010376
46.009	-0.00412	0.24323	-0.015869	0.025787	-0.005493	-0.016937	-0.005798	-0.008392	-0.026855	0.024567	0.010376	0.007019	-0.016327	0.078583	0.13001	-0.003357	-0.10346	0.048218	-0.84351	0.11505	0.27573	0.069427	0.80856	0.63263	-1.0014	-0.000458	0.002289	-0.016632	-0.068512	-0.057831	0.000153	-0.001373
46.01	-0.007782	0.27542	-0.1088	0.014801	-0.00824	-0.015259	0.007782	-0.006256	-0.029297	0.027008	-0.023346	0.009613	-0.028381	0.066528	-0.022888	-0.007782	-0.17883	-0.077057	0.42923	0.04425	0.23987	0.20004	1.2074	-0.011139	-0.76477	0.000458	0.015564	-0.014343	-0.053711	-0.01709	0.002441	-0.004272
46.011	-0.011597	0.33325	-0.066071	-0.000916	-0.006104	-0.022736	-0.007477	-0.010834	-0.016632	0.039215	-0.033264	-0.000763	-0.02243	-0.023956	-0.17609	-0.010834	-0.16785	0.011139	0.94955	0.067596	0.26977	0.11108	1.1397	-0.78659	-0.6749	0.006714	-0.013733	-0.010834	0.10269	0.001678	-0.001068	-0.010223
46.012	-0.019073	0.37567	0.088043	-0.004425	-0.007477	-0.029297	-0.024261	0.000305	-0.005188	0.019226	-0.020752	0.008392	-0.01358	-0.014954	-0.27054	-0.015259	-0.10132	-0.030212	0.93658	0.063019	0.19089	-0.040894	1.0362	-0.92361	-0.70023	0.002441	-0.007477	-0.00885	0.069122	-0.032959	-0.001831	-0.001678
46.013	-0.019379	0.41351	-0.074615	-0.018921	-0.014954	-0.040588	0.000763	-0.002289	-0.006714	-0.001221	0.002594	0.010071	0.014191	0.10056	-0.093536	-0.006409	-0.099182	-0.04837	1.2479	0.002441	-0.032806	-0.0177	0.784	-0.47867	-0.048523	0.001221	0.005341	-0.006561	0.071411	-0.069885	-0.007172	-0.010376
46.014	-0.014954	0.40222	-0.16632	-0.021515	-0.011292	-0.042419	-0.013885	-0.007782	-0.008392	-0.03479	0.063324	0.005188	0.053711	0.060577	-0.010681	-0.001526	-0.072327	-0.079956	0.47623	-0.18738	-0.073242	-0.079041	0.31525	-0.25055	0.23575	0.00061	-0.010834	-0.003357	0.014954	-0.032806	-0.003204	-0.001984
46.015	0.000305	0.39612	-0.090332	-0.0177	0.009918	-0.052948	-0.019226	-0.007172	0.000763	-0.016785	0.037079	0.007172	0.048065	-0.033264	0.060883	0.012512	-0.029755	-0.052795	-0.26459	-0.19974	-0.11078	-0.057678	-0.25253	-0.42847	0.2623	-0.000305	-0.017853	-0.010834	-0.10407	0.051727	-0.004272	-0.003357
